<svg xmlns="http://www.w3.org/2000/svg" style="display:none">
  <symbol id="website" viewBox="0 0 24 24"><path fill="currentColor" d="M12 2a10 10 0 1 0 .001 20.001A10 10 0 0 0 12 2Zm0 2a8 8 0 0 1 7.75 6H4.25A8 8 0 0 1 12 4Zm-7.75 8h15.5a8 8 0 0 1-15.5 0ZM12 6a12.6 12.6 0 0 0-2.5 6a12.6 12.6 0 0 0 2.5 6a12.6 12.6 0 0 0 2.5-6A12.6 12.6 0 0 0 12 6Z"/></symbol>
  <symbol id="email" viewBox="0 0 24 24"><path fill="currentColor" d="M20 4H4a2 2 0 0 0-2 2v12a2 2 0 0 0 2 2h16a2 2 0 0 0 2-2V6a2 2 0 0 0-2-2Zm0 4l-8 5L4 8V6l8 5l8-5v2Z"/></symbol>
  <symbol id="github" viewBox="0 0 24 24"><path fill="currentColor" d="M12 2C6.5 2 2 6.6 2 12.3c0 4.5 2.9 8.4 6.9 9.8c.5.1.7-.2.7-.5c0-.2 0-.8 0-1.6c-2.8.6-3.4-1.4-3.4-1.4c-.5-1.3-1.2-1.6-1.2-1.6c-1-.7.1-.7.1-.7c1.1.1 1.7 1.1 1.7 1.1c1 .1.7 1.8 2.6 1.3c.1-.8.4-1.3.7-1.6C7 15.7 5.3 14.8 5.3 11.7c0-1 .3-1.8.9-2.5c-.1-.2-.4-1.2.1-2.5c0 0 .8-.3 2.6 1c.8-.2 1.7-.3 2.6-.3s1.8.1 2.6.3c1.8-1.2 2.6-1 2.6-1c.5 1.3.2 2.3.1 2.5c.6.7.9 1.6.9 2.5c0 3.1-1.7 4-4.2 4.4c.4.3.8 1 .8 2c0 1.4 0 2.5 0 2.8c0 .3.2.6.7.5c4-1.4 6.9-5.3 6.9-9.8C22 6.6 17.5 2 12 2Z"/></symbol>
  <symbol id="x" viewBox="0 0 24 24"><path fill="currentColor" d="M3 3h4.6l4.3 6.1L16.7 3H21l-7.2 9.9L21.5 21h-4.6l-4.8-6.9L7.3 21H2l7.8-10.7L3 3z"/></symbol>
  <symbol id="linkedin" viewBox="0 0 24 24"><path fill="currentColor" d="M4.98 3.5A2.5 2.5 0 1 0 5 8.5a2.5 2.5 0 0 0-.02-5ZM3 9h4v12H3zM9 9h3.8v1.7h.1c.5-.9 1.7-1.8 3.6-1.8c3.9 0 4.6 2.5 4.6 5.7V21h-4v-4.8c0-1.1 0-2.6-1.6-2.6c-1.6 0-1.8 1.2-1.8 2.5V21H9z"/></symbol>
  <symbol id="instagram" viewBox="0 0 24 24"><path fill="currentColor" d="M7 2h10a5 5 0 0 1 5 5v10a5 5 0 0 1-5 5H7a5 5 0 0 1-5-5V7a5 5 0 0 1 5-5Zm10 2H7a3 3 0 0 0-3 3v10a3 3 0 0 0 3 3h10a3 3 0 0 0 3-3V7a3 3 0 0 0-3-3Zm-5 3.5A4.5 4.5 0 1 1 7.5 12A4.5 4.5 0 0 1 12 7.5Zm0 2A2.5 2.5 0 1 0 14.5 12A2.5 2.5 0 0 0 12 9.5Zm4.75-2.25a1 1 0 1 1-1 1a1 1 0 0 1 1-1Z"/></symbol>
  <symbol id="facebook" viewBox="0 0 24 24"><path fill="currentColor" d="M13 3h3a1 1 0 0 1 1 1v3h-3v3h3v11h-3v-6h-2v-5h2V7a4 4 0 0 1 4-4h2v3h-2c-.6 0-1 .4-1 1v1h3v5h-3v6h-5z"/></symbol>
  <symbol id="youtube" viewBox="0 0 24 24"><path fill="currentColor" d="M23 12s0-3-.4-4.5c-.2-.8-.8-1.5-1.6-1.6C19.5 5.3 12 5.3 12 5.3s-7.5 0-9 .6c-.8.2-1.4.8-1.6 1.6C1 9 1 12 1 12s0 3 .4 4.5c.2.8.8 1.5 1.6 1.6c1.5.6 9 .6 9 .6s7.5 0 9-.6c.8-.2 1.4-.8 1.6-1.6c.4-1.5.4-4.5.4-4.5ZM10 15.5v-7l6 3.5z"/></symbol>
  <symbol id="tiktok" viewBox="0 0 24 24"><path fill="currentColor" d="M14 3h3a5 5 0 0 0 5 5v3c-2.3 0-4.3-.9-6-2.3V15a6 6 0 1 1-6-6h1v3h-1a3 3 0 1 0 3 3V3Z"/></symbol>
  <symbol id="discord" viewBox="0 0 24 24"><path fill="currentColor" d="M20 4a18 18 0 0 0-4.4-1.3l-.2.5A15 15 0 0 1 12 3a15 15 0 0 1-3.4.2l-.2-.5A18 18 0 0 0 4 4C1.7 7.4 1 10.7 1 14c0 0 2.2 3.1 8 3.3l1.1-1.6c-.6-.2-1.2-.5-1.7-.8c1.6 1.2 3.5 1.3 5.2 0c-.6.4-1.1.6-1.7.8l1.1 1.6c5.8-.2 8-3.3 8-3.3c0-3.3-.7-6.6-3-10ZM9.5 12.5a1.3 1.3 0 1 1 0-2.6a1.3 1.3 0 0 1 0 2.6Zm5 0a1.3 1.3 0 1 1 0-2.6a1.3 1.3 0 0 1 0 2.6Z"/></symbol>
  <symbol id="telegram" viewBox="0 0 24 24"><path fill="currentColor" d="M21.5 3.5L2.6 11.2c-1 .4-1 1.8.1 2.1l4.8 1.5l1.8 5.6c.3 1 1.7 1.1 2.1.1l2.7-5.3l5.1 4c.9.7 2.3.2 2.6-1l2.7-13.4c.2-1-1-1.8-2-1.4ZM8.8 13.6l9.6-6.2l-7.6 7.2l-2 .2Z"/></symbol>
  <symbol id="whatsapp" viewBox="0 0 24 24"><path fill="currentColor" d="M20 3.9A10 10 0 0 0 3.5 17L2 22l5-1.3A10 10 0 1 0 20 3.8ZM6.6 18.2l-.3.1l.1-.3l.9-3.2l-.2-.4a7 7 0 1 1 2.6 2.5l-.4-.2l-2.7 1.5ZM16.6 13c-.2-.1-1.2-.6-1.3-.6s-.3-.1-.5.1s-.6.6-.7.7s-.2.2-.4.1a6.3 6.3 0 0 1-3-2.6c-.2-.4.2-.4.5-1s.1-.7-.1-1c-.1-.2-.5-1-1-1s-.8 0-1.1.4c-.3.3-1 1-1 2.4s1 2.8 1.1 2.9s2 3.2 4.9 4.4c.7.3 1.2.5 1.6.6c.7.2 1.4.2 1.9.1c.6-.1 1.2-.6 1.4-1.2c.2-.6.2-1.1.2-1.2s-.1-.2-.3-.3Z"/></symbol>
  <symbol id="spotify" viewBox="0 0 24 24"><path fill="currentColor" d="M12 2a10 10 0 1 0 .001 20.001A10 10 0 0 0 12 2Zm4.5 14.9a.8.8 0 0 1-1.1.3a10.5 10.5 0 0 0-8.8-.8a.8.8 0 0 1-.5-1.5a12.2 12.2 0 0 1 10.2.9a.8.8 0 0 1 .2 1.1Zm1.5-3.2a1 1 0 0 1-1.4.3a13.7 13.7 0 0 0-11.6-1a1 1 0 1 1-.6-1.9a15.8 15.8 0 0 1 13.3 1.1a1 1 0 0 1 .3 1.5Zm.1-3.4a1.2 1.2 0 0 1-1.6.4A17.3 17.3 0 0 0 6 7.6a1.2 1.2 0 1 1-.7-2.3a19.7 19.7 0 0 1 11 1.5a1.2 1.2 0 0 1 .4 1.5Z"/></symbol>
  <symbol id="soundcloud" viewBox="0 0 24 24"><path fill="currentColor" d="M10 7.5a5 5 0 0 1 6.5 3.7H19a3 3 0 1 1 0 6H8a3 3 0 0 1-.4-5.9A4.9 4.9 0 0 1 10 7.5ZM4 11h1v6H4zm2-1h1v7H6zm10 1h1v6h-1zm-2-1h1v7h-1zm-2-1h1v8h-1z"/></symbol>
  <symbol id="twitch" viewBox="0 0 24 24"><path fill="currentColor" d="M4 2 2 6v14h5v2h3l2-2h4l4-4V2H4Zm15 12l-2 2h-5l-2 2v-2H5V4h14v10Zm-2-7h-2v5h2V7Zm-5 0H10v5h2V7Z"/></symbol>
  <symbol id="bandcamp" viewBox="0 0 24 24"><path fill="currentColor" d="M3 5h10l-6 14H-3z M11 5h10l-6 14H5z"/></symbol>
  <symbol id="medium" viewBox="0 0 24 24"><path fill="currentColor" d="M4 7a2 2 0 0 0-.7 1.6v7A2 2 0 0 0 4 17l4.2-6.2L4 7Zm7.4 3.9L7 18h10a2 2 0 0 0 2-2V8a2 2 0 0 0-2-2h-.6l-3.7 5.3L9.5 6H8.2l3.2 4.9Z"/></symbol>
  <symbol id="substack" viewBox="0 0 24 24"><path fill="currentColor" d="M4 4h16v2H4zm0 4h16v2H4zm0 3h16v9l-8-4l-8 4z"/></symbol>
  <symbol id="paypal" viewBox="0 0 24 24"><path fill="currentColor" d="M7 21H4l2.1-12h6.5c2.8 0 4.6 1.5 4.1 4.3c-.4 2.3-2.2 3.5-4.7 3.5H9.7L9 21H7Zm8.3-7.8c.2-1.1-.6-1.8-1.9-1.8H8.7L8 15h4.6c1.5 0 2.6-.6 2.7-1.8Z"/></symbol>
  <symbol id="patreon" viewBox="0 0 24 24"><path fill="currentColor" d="M3 21h4V3H3v18Zm11-2a7 7 0 1 0 0-14a7 7 0 0 0 0 14Z"/></symbol>
  <symbol id="kofi" viewBox="0 0 24 24"><path fill="currentColor" d="M3 6h14a4 4 0 0 1 0 8h-1.4a6 6 0 0 1-5.9 5H5a2 2 0 0 1-2-2V6Zm14 2H5v9h4.7a4 4 0 0 0 3.9-3h3.4a2 2 0 1 0 0-4Z"/></symbol>
  <symbol id="amazon" viewBox="0 0 24 24"><path fill="currentColor" d="M12.1 3.1c1.8 0 3.2.5 4.1 1.5c.8.9 1.1 2 1.1 3.2c0 1.5-.5 2.7-1.6 3.6c-1 .8-2.3 1.2-3.7 1.2h-1.9V21H6.3V3.6h5.8Zm-.2 2.9h-1.8v4h1.8c.8 0 1.4-.2 1.9-.6c.4-.4.7-1 .7-1.6c0-.6-.2-1.1-.7-1.5c-.4-.3-1-.5-1.9-.5Zm9.6 12.2c-1.4.8-3.6 1.8-5.5 2.2c-1.9.5-3.5.6-4.3.6c-.8 0-1.1-.1-1.2-.2c-.2-.2 0-.4.4-.5c1.9-.4 3.2-.6 4.8-1.1c1.6-.4 3.5-1.2 4.7-2c.3-.2.5 0 .5.2c.1.3-.1.6-.4.8Zm.5-1.8c-.2.2-.5.2-.6 0c-1.1-.9-3.7-1.8-5.8-1.8c-2.2 0-4.4.6-5.8 1.1c-.2.1-.5 0-.5-.2s.2-.4.3-.5c1.3-.9 4-2.2 7.5-2.2c2.8 0 5.1.8 6.1 1.6c.3.2.2.5-.2.8Z"/></symbol>
  <symbol id="shopify" viewBox="0 0 24 24"><path fill="currentColor" d="M5 6l3-2l4-1l5 2l2 2l-2 13l-9 2L4 18l1-12Zm5-2l-2 .6l-.7.5L8 6l2-.6V4Zm2 .1V6l2-.6l-2-1.3ZM8 8l8-2l-1.6 10.8c-.2 1.1-1.2 2-2.3 2.1c-1.2.1-2.4 0-3.5-.3c-1-.3-1.7-1.2-1.6-2.3L8 8Z"/></symbol>
</svg>
